<svg width="16" height="10" fill="none" xmlns="http://www.w3.org/2000/svg"><path d="M8 .232C4.943.232 2.17 1.904.125 4.62a.633.633 0 000 .756C2.171 8.097 4.943 9.769 8 9.769c3.057 0 5.83-1.672 7.875-4.389a.633.633 0 000-.756C13.829 1.904 11.057.232 8 .232zm.22 8.127A3.367 3.367 0 014.641 4.78 3.373 3.373 0 017.78 1.642a3.367 3.367 0 013.577 3.578A3.383 3.383 0 018.22 8.359zm-.102-1.552a1.81 1.81 0 01-1.925-1.924A1.82 1.82 0 017.885 3.19 1.81 1.81 0 019.81 5.115a1.82 1.82 0 01-1.692 1.692z" fill="#B397F2"/></svg>